<mxfile host="65bd71144e">
    <diagram id="hc2QHvue_ZppFYRPBoGG" name="Page-1">
        <mxGraphModel dx="772" dy="1147" grid="1" gridSize="10" guides="1" tooltips="1" connect="1" arrows="1" fold="1" page="1" pageScale="1" pageWidth="200" pageHeight="200" math="0" shadow="0">
            <root>
                <mxCell id="0"/>
                <mxCell id="1" parent="0"/>
                <mxCell id="6" value="" style="whiteSpace=wrap;html=1;aspect=fixed;fontSize=9;" parent="1" vertex="1">
                    <mxGeometry x="-130" y="-130" width="670" height="670" as="geometry"/>
                </mxCell>
                <mxCell id="2" value="" style="ellipse;whiteSpace=wrap;html=1;aspect=fixed;" parent="1" vertex="1">
                    <mxGeometry x="40" y="20" width="370" height="370" as="geometry"/>
                </mxCell>
                <mxCell id="3" value="" style="ellipse;whiteSpace=wrap;html=1;aspect=fixed;" parent="1" vertex="1">
                    <mxGeometry x="160" y="140" width="130" height="130" as="geometry"/>
                </mxCell>
                <mxCell id="4" value="Models&lt;br style=&quot;font-size: 11px&quot;&gt;&lt;font size=&quot;1&quot;&gt;&lt;i style=&quot;font-size: 9px&quot;&gt;renku.domain_model&lt;/i&gt;&lt;/font&gt;" style="text;html=1;strokeColor=none;fillColor=none;align=center;verticalAlign=middle;whiteSpace=wrap;rounded=0;" parent="1" vertex="1">
                    <mxGeometry x="195" y="160" width="60" height="30" as="geometry"/>
                </mxCell>
                <mxCell id="5" value="&lt;font&gt;&lt;span style=&quot;font-size: 12px&quot;&gt;Application Logic&lt;/span&gt;&lt;br&gt;&lt;i&gt;&lt;font style=&quot;font-size: 9px&quot;&gt;renku.core&lt;/font&gt;&lt;/i&gt;&lt;br&gt;&lt;/font&gt;" style="text;html=1;strokeColor=none;fillColor=none;align=center;verticalAlign=middle;whiteSpace=wrap;rounded=0;fontSize=9;" parent="1" vertex="1">
                    <mxGeometry x="170" y="30" width="110" height="40" as="geometry"/>
                </mxCell>
                <mxCell id="7" value="&lt;font&gt;&lt;span style=&quot;font-size: 12px&quot;&gt;CLI&lt;/span&gt;&lt;br&gt;&lt;i&gt;&lt;font style=&quot;font-size: 9px&quot;&gt;renku.ui.cli&lt;/font&gt;&lt;/i&gt;&lt;br&gt;&lt;/font&gt;" style="rounded=0;whiteSpace=wrap;html=1;fontSize=9;rotation=-45;" parent="1" vertex="1">
                    <mxGeometry x="-40" y="-20" width="120" height="40" as="geometry"/>
                </mxCell>
                <mxCell id="8" value="&lt;font style=&quot;font-size: 12px&quot;&gt;JSON RPC Service&lt;/font&gt;&lt;br&gt;&lt;i&gt;renku.ui.rpc&lt;/i&gt;" style="rounded=0;whiteSpace=wrap;html=1;fontSize=9;rotation=-90;" parent="1" vertex="1">
                    <mxGeometry x="-110" y="155" width="120" height="40" as="geometry"/>
                </mxCell>
                <mxCell id="9" value="Commands&lt;br&gt;&lt;i&gt;&lt;font style=&quot;font-size: 9px&quot;&gt;renku.command&lt;/font&gt;&lt;/i&gt;" style="ellipse;whiteSpace=wrap;html=1;fontSize=12;rotation=-65;" parent="1" vertex="1">
                    <mxGeometry y="110" width="120" height="40" as="geometry"/>
                </mxCell>
                <mxCell id="25" value="" style="endArrow=none;dashed=1;html=1;" parent="1" edge="1">
                    <mxGeometry width="50" height="50" relative="1" as="geometry">
                        <mxPoint x="224.5" y="540" as="sourcePoint"/>
                        <mxPoint x="224.5" y="-130" as="targetPoint"/>
                    </mxGeometry>
                </mxCell>
                <mxCell id="10" value="" style="shape=flexArrow;endArrow=classic;html=1;fontSize=9;fillColor=#60a917;strokeColor=#2D7600;" parent="1" edge="1">
                    <mxGeometry width="50" height="50" relative="1" as="geometry">
                        <mxPoint x="77" y="143" as="sourcePoint"/>
                        <mxPoint x="165" y="182" as="targetPoint"/>
                    </mxGeometry>
                </mxCell>
                <mxCell id="11" value="" style="shape=flexArrow;endArrow=classic;html=1;fontSize=9;exitX=0.5;exitY=1;exitDx=0;exitDy=0;entryX=1;entryY=0;entryDx=0;entryDy=0;fillColor=#60a917;strokeColor=#2D7600;" parent="1" source="7" target="9" edge="1">
                    <mxGeometry width="50" height="50" relative="1" as="geometry">
                        <mxPoint x="-230" y="80" as="sourcePoint"/>
                        <mxPoint x="-180" y="30" as="targetPoint"/>
                    </mxGeometry>
                </mxCell>
                <mxCell id="12" value="" style="shape=flexArrow;endArrow=classic;html=1;fontSize=9;exitX=0.5;exitY=1;exitDx=0;exitDy=0;entryX=0.201;entryY=0.136;entryDx=0;entryDy=0;entryPerimeter=0;fillColor=#60a917;strokeColor=#2D7600;" parent="1" source="8" target="9" edge="1">
                    <mxGeometry width="50" height="50" relative="1" as="geometry">
                        <mxPoint x="-30" y="190" as="sourcePoint"/>
                        <mxPoint x="20" y="140" as="targetPoint"/>
                    </mxGeometry>
                </mxCell>
                <mxCell id="13" value="&lt;font style=&quot;font-size: 12px&quot;&gt;Infrastructure&lt;/font&gt;&lt;br&gt;&lt;i&gt;renku.infrastructure&lt;/i&gt;" style="rounded=0;whiteSpace=wrap;html=1;fontSize=9;rotation=45;" parent="1" vertex="1">
                    <mxGeometry x="360" y="-10" width="120" height="40" as="geometry"/>
                </mxCell>
                <mxCell id="14" value="" style="shape=flexArrow;endArrow=classic;html=1;fontSize=12;exitX=0.5;exitY=1;exitDx=0;exitDy=0;entryX=1;entryY=0;entryDx=0;entryDy=0;fillColor=#60a917;strokeColor=#2D7600;" parent="1" source="13" target="3" edge="1">
                    <mxGeometry width="50" height="50" relative="1" as="geometry">
                        <mxPoint x="330" y="50" as="sourcePoint"/>
                        <mxPoint x="380" as="targetPoint"/>
                    </mxGeometry>
                </mxCell>
                <mxCell id="19" value="" style="curved=1;endArrow=classic;html=1;fontSize=12;fillColor=#1ba1e2;strokeColor=#006EAF;exitX=0.598;exitY=0.995;exitDx=0;exitDy=0;exitPerimeter=0;entryX=0.425;entryY=0.995;entryDx=0;entryDy=0;entryPerimeter=0;" parent="1" source="7" target="13" edge="1">
                    <mxGeometry width="50" height="50" relative="1" as="geometry">
                        <mxPoint x="130" y="10" as="sourcePoint"/>
                        <mxPoint x="180" y="-40" as="targetPoint"/>
                        <Array as="points">
                            <mxPoint x="80" y="100"/>
                            <mxPoint x="240" y="160"/>
                            <mxPoint x="330" y="80"/>
                        </Array>
                    </mxGeometry>
                </mxCell>
                <mxCell id="20" value="" style="curved=1;endArrow=classic;html=1;fontSize=12;fillColor=#1ba1e2;strokeColor=#006EAF;exitX=0.25;exitY=1;exitDx=0;exitDy=0;entryX=0.75;entryY=1;entryDx=0;entryDy=0;" parent="1" source="8" target="13" edge="1">
                    <mxGeometry width="50" height="50" relative="1" as="geometry">
                        <mxPoint x="60" y="270" as="sourcePoint"/>
                        <mxPoint x="110" y="220" as="targetPoint"/>
                        <Array as="points">
                            <mxPoint x="20" y="150"/>
                            <mxPoint x="270" y="250"/>
                        </Array>
                    </mxGeometry>
                </mxCell>
                <mxCell id="21" value="" style="curved=1;endArrow=classic;html=1;fontSize=12;fillColor=#a20025;strokeColor=#6F0000;exitX=0.25;exitY=1;exitDx=0;exitDy=0;entryX=0.75;entryY=1;entryDx=0;entryDy=0;" parent="1" source="13" target="7" edge="1">
                    <mxGeometry width="50" height="50" relative="1" as="geometry">
                        <mxPoint x="300" y="-30" as="sourcePoint"/>
                        <mxPoint x="350" y="-80" as="targetPoint"/>
                        <Array as="points">
                            <mxPoint x="350" y="60"/>
                            <mxPoint x="220" y="160"/>
                            <mxPoint x="70" y="80"/>
                        </Array>
                    </mxGeometry>
                </mxCell>
                <mxCell id="23" value="" style="curved=1;endArrow=classic;html=1;fontSize=12;exitX=0.876;exitY=0.964;exitDx=0;exitDy=0;exitPerimeter=0;entryX=0.107;entryY=0.975;entryDx=0;entryDy=0;entryPerimeter=0;fillColor=#a20025;strokeColor=#6F0000;" parent="1" source="13" target="8" edge="1">
                    <mxGeometry width="50" height="50" relative="1" as="geometry">
                        <mxPoint x="220" y="350" as="sourcePoint"/>
                        <mxPoint x="270" y="300" as="targetPoint"/>
                        <Array as="points">
                            <mxPoint x="300" y="250"/>
                            <mxPoint x="50" y="200"/>
                        </Array>
                    </mxGeometry>
                </mxCell>
                <mxCell id="26" value="&lt;font style=&quot;font-size: 18px&quot;&gt;UI&lt;/font&gt;" style="text;html=1;strokeColor=none;fillColor=none;align=center;verticalAlign=middle;whiteSpace=wrap;rounded=0;" parent="1" vertex="1">
                    <mxGeometry x="-80" y="-115" width="60" height="30" as="geometry"/>
                </mxCell>
                <mxCell id="27" value="&lt;font style=&quot;font-size: 18px&quot;&gt;Infrastructure&lt;/font&gt;" style="text;html=1;strokeColor=none;fillColor=none;align=center;verticalAlign=middle;whiteSpace=wrap;rounded=0;" parent="1" vertex="1">
                    <mxGeometry x="350" y="-115" width="140" height="30" as="geometry"/>
                </mxCell>
                <mxCell id="28" value="&lt;font style=&quot;font-size: 12px&quot;&gt;API&lt;/font&gt;&lt;br&gt;&lt;i&gt;renku.ui.api&lt;/i&gt;" style="rounded=0;whiteSpace=wrap;html=1;fontSize=9;rotation=60;" vertex="1" parent="1">
                    <mxGeometry x="-60" y="330" width="120" height="40" as="geometry"/>
                </mxCell>
                <mxCell id="29" value="" style="shape=flexArrow;endArrow=classic;html=1;fontSize=9;exitX=0.59;exitY=0.001;exitDx=0;exitDy=0;fillColor=#60a917;strokeColor=#2D7600;exitPerimeter=0;" edge="1" parent="1" source="28" target="2">
                    <mxGeometry width="50" height="50" relative="1" as="geometry">
                        <mxPoint x="-20" y="185" as="sourcePoint"/>
                        <mxPoint x="41.640615389489994" y="166.36500150793063" as="targetPoint"/>
                    </mxGeometry>
                </mxCell>
                <mxCell id="30" value="&lt;font style=&quot;font-size: 12px&quot;&gt;Plugins&lt;/font&gt;&lt;br&gt;&lt;font style=&quot;font-size: 9px&quot;&gt;renku.core.plugin&lt;/font&gt;" style="ellipse;whiteSpace=wrap;html=1;fontSize=12;rotation=90;" vertex="1" parent="1">
                    <mxGeometry x="340" y="185" width="120" height="40" as="geometry"/>
                </mxCell>
            </root>
        </mxGraphModel>
    </diagram>
</mxfile>
